<svg xmlns="http://www.w3.org/2000/svg" viewBox="0 0 45.6 82.7"><defs><style>.a{fill:#fffefe;stroke:#e4e2e2;}</style></defs><rect class="a" x="0.5" y="0.5" width="44.6" height="81.67" rx="4.5"/><path d="M31.3,49.8H27.7V44.2c0-1.3,0-3-1.8-3s-2.2,1.4-2.2,2.9v5.7H20.2V38.3h3.4v1.6h0A3.9,3.9,0,0,1,27,38c3.6,0,4.3,2.4,4.3,5.5v6.3Zm-15.1-13a2.1,2.1,0,1,1,2-2.1A2.1,2.1,0,0,1,16.2,36.8Zm1.7,13H14.4V38.3h3.5ZM33,29.3H12.6a1.8,1.8,0,0,0-1.8,1.8V51.6a1.7,1.7,0,0,0,1.8,1.7H33a1.7,1.7,0,0,0,1.8-1.7V31.1A1.8,1.8,0,0,0,33,29.3Z"/></svg>