<svg xmlns="http://www.w3.org/2000/svg" viewBox="0 0 45.6 164.3"><defs><style>.a{fill:#fffefe;stroke:#e4e2e2;}</style></defs><rect class="a" x="0.5" y="0.5" width="44.6" height="163.35" rx="4.5"/><path d="M34.8,43.2a9.6,9.6,0,0,1-2.9.8,4.9,4.9,0,0,0,2.2-2.7A14.3,14.3,0,0,1,31,42.5a4.8,4.8,0,0,0-3.6-1.6,4.9,4.9,0,0,0-4.9,4.9,3.7,3.7,0,0,0,.1,1.1,13.7,13.7,0,0,1-10.1-5.1,4.3,4.3,0,0,0-.7,2.5A5,5,0,0,0,14,48.4a5.1,5.1,0,0,1-2.2-.6h0a4.8,4.8,0,0,0,3.9,4.8,2.7,2.7,0,0,1-1.3.2h-.9a5,5,0,0,0,4.6,3.5A10,10,0,0,1,12,58.3H10.8a14.1,14.1,0,0,0,7.6,2.2,13.9,13.9,0,0,0,14-14v-.6a9.9,9.9,0,0,0,2.4-2.6Z"/><path d="M31.3,119.9H27.7v-5.6c0-1.3,0-3-1.8-3s-2.2,1.4-2.2,2.9v5.7H20.2V108.5h3.4V110h0a3.8,3.8,0,0,1,3.4-1.8c3.6,0,4.3,2.3,4.3,5.4v6.3Zm-15.1-13a2.1,2.1,0,0,1-2.1-2.1,2,2,0,0,1,2.1-2,2,2,0,0,1,2,2A2,2,0,0,1,16.2,106.9Zm1.7,13H14.4V108.5h3.5ZM33,99.5H12.6a1.7,1.7,0,0,0-1.8,1.7v20.5a1.8,1.8,0,0,0,1.8,1.8H33a1.8,1.8,0,0,0,1.8-1.8V101.2A1.7,1.7,0,0,0,33,99.5Z"/></svg>