<svg xmlns="http://www.w3.org/2000/svg" viewBox="0 0 45.6 82.8"><defs><style>.a{fill:#fffefe;stroke:#e4e2e2;}</style></defs><rect class="a" x="0.5" y="0.5" width="44.6" height="81.79" rx="4.5"/><path d="M34.8,34a9.5,9.5,0,0,1-2.9.7A4.6,4.6,0,0,0,34.1,32,8.4,8.4,0,0,1,31,33.2a4.8,4.8,0,0,0-3.6-1.6,4.9,4.9,0,0,0-4.9,5,4.5,4.5,0,0,0,.1,1.1,14,14,0,0,1-10.1-5.1,4,4,0,0,0-.7,2.4A5,5,0,0,0,14,39.1a4,4,0,0,1-2.2-.6h0a4.8,4.8,0,0,0,3.9,4.8l-1.3.2h-.9a4.9,4.9,0,0,0,4.6,3.4A10,10,0,0,1,12,49H10.8a14.1,14.1,0,0,0,7.6,2.2,13.9,13.9,0,0,0,14-13.9v-.7A9.5,9.5,0,0,0,34.8,34Z"/></svg>