<svg xmlns="http://www.w3.org/2000/svg" viewBox="0 0 45.6 43"><defs><style>.a{fill:#fffefe;}</style></defs><rect class="a" x="0.5" y="0.5" width="44.6" height="41.99" rx="4.5"/><path d="M34.6,33.3H29.7V25.5c0-1.8-.1-4.2-2.6-4.2s-3,2-3,4.1v7.9h-5v-16h4.8v2.2H24a5,5,0,0,1,4.7-2.6c5,0,5.9,3.3,5.9,7.6v8.8ZM13.5,15.1a2.9,2.9,0,1,1,2.9-2.9A2.9,2.9,0,0,1,13.5,15.1ZM16,33.3H11v-16h5ZM37.1,4.7H8.5A2.5,2.5,0,0,0,6,7.1V35.9a2.5,2.5,0,0,0,2.5,2.4H37.1a2.5,2.5,0,0,0,2.5-2.4V7.1a2.5,2.5,0,0,0-2.5-2.4Z"/></svg>