<svg xmlns="http://www.w3.org/2000/svg" viewBox="0 0 45.6 43.1"><defs><style>.a{fill:#fffefe;}</style></defs><rect class="a" x="0.5" y="0.5" width="44.6" height="42.11" rx="4.5"/><path d="M39.6,11.2a13.8,13.8,0,0,1-4,1,6.7,6.7,0,0,0,3-3.8,13.3,13.3,0,0,1-4.3,1.7,6.9,6.9,0,0,0-12,4.7,8.8,8.8,0,0,0,.2,1.6A19.9,19.9,0,0,1,8.3,9.2a6.7,6.7,0,0,0-.9,3.4,7.1,7.1,0,0,0,3,5.8,8.5,8.5,0,0,1-3.1-.9h0a7,7,0,0,0,5.6,6.8l-1.9.2H9.8a6.9,6.9,0,0,0,6.4,4.8,14.1,14.1,0,0,1-8.5,2.9H6a19.4,19.4,0,0,0,10.6,3.1c12.7,0,19.6-10.5,19.6-19.6v-.9a12.6,12.6,0,0,0,3.4-3.5Z"/></svg>